<svg width="129" height="15" viewBox="0 0 129 15" fill="none" xmlns="http://www.w3.org/2000/svg">
  <path d="M8.07608 14.2318C6.69786 14.2318 5.44845 13.9356 4.32785 13.3431C3.22013 12.7377 2.34425 11.9069 1.70023 10.8507C1.06908 9.78164 0.753509 8.57731 0.753509 7.23774C0.753509 5.89816 1.06908 4.70028 1.70023 3.64408C2.34425 2.57499 3.22013 1.7442 4.32785 1.1517C5.44845 0.546314 6.7043 0.243622 8.0954 0.243622C9.26752 0.243622 10.3237 0.44971 11.264 0.861886C12.2172 1.27406 13.0157 1.86657 13.6598 2.6394L11.6504 4.49419C10.7359 3.43799 9.60242 2.90989 8.24996 2.90989C7.41273 2.90989 6.66566 3.09665 6.00876 3.47019C5.35185 3.83084 4.83663 4.33962 4.46309 4.99653C4.10244 5.65343 3.92211 6.4005 3.92211 7.23774C3.92211 8.07497 4.10244 8.82204 4.46309 9.47894C4.83663 10.1358 5.35185 10.6511 6.00876 11.0246C6.66566 11.3853 7.41273 11.5656 8.24996 11.5656C9.60242 11.5656 10.7359 11.031 11.6504 9.96196L13.6598 11.8168C13.0157 12.6025 12.2172 13.2014 11.264 13.6136C10.3108 14.0258 9.2482 14.2318 8.07608 14.2318ZM22.0402 14.2318C20.6362 14.2318 19.3674 13.9292 18.234 13.3238C17.1134 12.7184 16.231 11.8876 15.587 10.8314C14.9559 9.76231 14.6403 8.56443 14.6403 7.23774C14.6403 5.91104 14.9559 4.7196 15.587 3.6634C16.231 2.59431 17.1134 1.75708 18.234 1.1517C19.3674 0.546314 20.6362 0.243622 22.0402 0.243622C23.4441 0.243622 24.7064 0.546314 25.827 1.1517C26.9476 1.75708 27.8299 2.59431 28.474 3.6634C29.118 4.7196 29.44 5.91104 29.44 7.23774C29.44 8.56443 29.118 9.76231 28.474 10.8314C27.8299 11.8876 26.9476 12.7184 25.827 13.3238C24.7064 13.9292 23.4441 14.2318 22.0402 14.2318ZM22.0402 11.5656C22.8387 11.5656 23.5601 11.3853 24.2041 11.0246C24.8481 10.6511 25.3504 10.1358 25.7111 9.47894C26.0846 8.82204 26.2714 8.07497 26.2714 7.23774C26.2714 6.4005 26.0846 5.65343 25.7111 4.99653C25.3504 4.33962 24.8481 3.83084 24.2041 3.47019C23.5601 3.09665 22.8387 2.90989 22.0402 2.90989C21.2416 2.90989 20.5203 3.09665 19.8762 3.47019C19.2322 3.83084 18.7234 4.33962 18.3499 4.99653C17.9892 5.65343 17.8089 6.4005 17.8089 7.23774C17.8089 8.07497 17.9892 8.82204 18.3499 9.47894C18.7234 10.1358 19.2322 10.6511 19.8762 11.0246C20.5203 11.3853 21.2416 11.5656 22.0402 11.5656ZM44.0996 14L44.0803 5.88528L40.1002 12.5703H38.6898L34.7291 6.05917V14H31.7923V0.475471H34.3813L39.4433 8.88L44.4281 0.475471H46.9977L47.0364 14H44.0996ZM56.2539 14.2318C54.3218 14.2318 52.8148 13.6973 51.7328 12.6282C50.6637 11.5591 50.1292 10.0328 50.1292 8.04921V0.475471H53.2592V7.93328C53.2592 10.3548 54.2638 11.5656 56.2732 11.5656C57.2521 11.5656 57.9992 11.2758 58.5144 10.6962C59.0296 10.1036 59.2872 9.18269 59.2872 7.93328V0.475471H62.3786V8.04921C62.3786 10.0328 61.8376 11.5591 60.7556 12.6282C59.6865 13.6973 58.186 14.2318 56.2539 14.2318ZM77.8755 0.475471V14H75.3058L68.5629 5.78868V14H65.4716V0.475471H68.0605L74.7842 8.68679V0.475471H77.8755ZM81.0753 0.475471H84.2053V14H81.0753V0.475471ZM93.8874 14.2318C92.5092 14.2318 91.2598 13.9356 90.1392 13.3431C89.0315 12.7377 88.1556 11.9069 87.5116 10.8507C86.8804 9.78164 86.5648 8.57731 86.5648 7.23774C86.5648 5.89816 86.8804 4.70028 87.5116 3.64408C88.1556 2.57499 89.0315 1.7442 90.1392 1.1517C91.2598 0.546314 92.5156 0.243622 93.9067 0.243622C95.0788 0.243622 96.135 0.44971 97.0753 0.861886C98.0285 1.27406 98.8271 1.86657 99.4711 2.6394L97.4617 4.49419C96.5472 3.43799 95.4137 2.90989 94.0613 2.90989C93.2241 2.90989 92.477 3.09665 91.8201 3.47019C91.1632 3.83084 90.648 4.33962 90.2744 4.99653C89.9138 5.65343 89.7334 6.4005 89.7334 7.23774C89.7334 8.07497 89.9138 8.82204 90.2744 9.47894C90.648 10.1358 91.1632 10.6511 91.8201 11.0246C92.477 11.3853 93.2241 11.5656 94.0613 11.5656C95.4137 11.5656 96.5472 11.031 97.4617 9.96196L99.4711 11.8168C98.8271 12.6025 98.0285 13.2014 97.0753 13.6136C96.1222 14.0258 95.0595 14.2318 93.8874 14.2318ZM110.227 11.1019H103.948L102.75 14H99.5431L105.571 0.475471H108.662L114.71 14H111.425L110.227 11.1019ZM109.242 8.72543L107.098 3.54747L104.953 8.72543H109.242ZM124.73 14L122.122 10.2325H121.967H119.243V14H116.113V0.475471H121.967C123.165 0.475471 124.202 0.675118 125.078 1.07441C125.967 1.47371 126.649 2.04045 127.126 2.77464C127.602 3.50883 127.841 4.37826 127.841 5.38294C127.841 6.38762 127.596 7.25706 127.107 7.99124C126.63 8.71255 125.947 9.26641 125.059 9.65283L128.092 14H124.73ZM124.672 5.38294C124.672 4.62299 124.427 4.04337 123.938 3.64408C123.449 3.2319 122.734 3.02581 121.793 3.02581H119.243V7.74008H121.793C122.734 7.74008 123.449 7.53399 123.938 7.12181C124.427 6.70963 124.672 6.13001 124.672 5.38294Z" fill="white"></path>
</svg>